<svg width="162" height="122" viewBox="0 0 162 122" fill="none" xmlns="http://www.w3.org/2000/svg">
<path d="M159.052 62.961L157.657 62.0199C152.886 57.0086 146.249 54.839 137.376 55.3861C129.986 55.8589 124.124 58.9464 119.647 61.8113C119.647 61.7372 119.647 61.6722 119.647 61.5981C119.647 59.1643 119.907 56.5172 120.167 53.9536C120.422 51.3436 120.691 48.6873 120.691 46.1793C120.691 43.6713 120.418 41.1819 119.577 39.1004C119.366 38.5719 118.899 38.252 118.309 38.252C115.92 38.3077 111.263 40.0276 110.127 41.0706L109.516 42.4846C109.48 45.2707 108.895 53.045 108.301 53.9907C108.327 53.9582 107.993 54.9271 107.993 54.9271C106.985 66.0299 106.967 75.793 107.892 84.1746C107.997 85.0136 109.533 86.27 110.713 86.7289C112.011 87.2342 116.069 86.0892 118.415 85.162C118.384 85.1713 119.291 85.0136 119.291 85.0136C120.03 84.9302 120.466 84.2719 120.431 83.3818C120.418 83.3633 120.488 80.9712 120.488 80.9712C122.178 73.7347 129.013 65.1028 137.107 63.8047C141.68 63.0398 145.294 64.2776 148.15 67.5551C148.537 68.1392 149.369 73.3545 146.354 79.3301C144.11 83.7573 139.62 87.4938 133.718 89.8256C128.129 92.0647 121.984 92.9641 114.388 92.6906C114.071 92.4773 107.28 87.6282 107.28 87.6282C101.254 83.1732 93.7723 77.6288 86.9943 74.9261C85.8015 74.4393 83.6669 72.5711 82.3817 71.4539L81.6775 70.8466C77.7648 67.5412 70.3178 62.3166 64.3409 58.1212C64.3409 58.1212 61.6429 56.2113 61.1235 55.8497C61.1235 55.6132 61.1235 55.1357 61.1235 55.1357C61.2996 54.9364 65.0583 52.5628 65.0583 52.5628C70.3134 49.3178 72.7473 47.7323 73.2623 46.9118C73.1566 47.0462 73.9577 46.476 73.9577 46.476C74.0061 46.4528 86.9987 38.7064 86.9987 38.7064C99.5203 31.4652 113.697 23.2412 121.144 15.1239C121.157 15.1146 121.509 13.8769 121.509 13.8769L121.672 12.7782C122.169 11.0351 122.191 9.70926 121.778 8.16553C121.672 7.72049 121.285 7.21054 120.77 7.11783C114.951 6.5059 107.451 10.1775 100.625 16.9272C99.0802 18.4478 97.7906 19.1942 96.4262 19.973L95.3831 20.5895C87.8569 25.0956 70.8988 36.1845 62.017 42.1647C62.6024 32.1096 64.3673 17.808 66.5415 5.8847L66.2994 4.46614C66.273 4.41514 65.3796 2.6628 65.3796 2.6628L64.6886 1.37404L64.4905 1.31841C62.7212 0.3727 61.2732 0.757474 60.2081 1.03562L58.4387 1.72636L56.0708 2.63498C55.6043 2.73234 55.2742 3.0383 55.0938 3.51115C50.8509 14.3034 47.3167 32.0539 46.476 46.2581C38.008 40.5839 30.1737 36.5043 26.3314 34.5295L26.2257 34.4646L25.7724 34.3626C24.386 34.1725 22.7047 33.1063 21.0894 32.0679C20.9134 31.9612 17.8633 29.8705 17.8633 29.8705L12.9383 26.5512C12.9735 26.579 11.6399 26.2406 11.6399 26.2406C9.52727 26.6254 5.46928 29.495 4.26333 31.4606C4.10929 31.7155 4.03887 31.9937 4.03887 32.2904C4.03887 32.703 4.1621 33.1156 4.26333 33.5235L4.479 34.5758L4.71226 35.2109C7.07135 37.7607 13.0263 42.0071 18.8668 45.3078L25.636 49.086L36.001 55.0476C36.001 55.0986 37.7659 56.5265 37.7659 56.5265L38.9851 57.2636C38.9851 57.2636 39.1259 57.3517 39.2095 57.4073C36.4499 59.3543 20.3632 70.6611 20.3632 70.6611L10.4559 77.5778C9.51846 78.25 5.61013 80.095 4.74307 80.4566C2.59965 81.3792 0.971172 82.7931 0.297775 84.3275L0.0292969 84.9302L0.297775 85.3289L1.0592 85.9362C1.02399 85.9362 2.07149 86.6315 2.07149 86.6315L3.16301 87.4196C3.18942 87.4289 4.19291 87.5958 4.19291 87.5958C5.93582 87.6653 8.51497 86.6223 13.3388 84.3924C17.7709 82.3295 29.804 74.6804 34.9491 71.4168L37.1409 70.0307C38.052 70.1141 39.0467 69.3028 39.9401 68.5982C40.97 67.7313 43.2147 66.2756 44.5835 65.6405C44.6275 65.6266 45.4021 65.1677 46.1416 64.7365C46.1327 64.9776 46.1283 65.3531 46.1283 65.3531C46.3572 81.9355 47.2595 93.984 48.9804 103.27L49.0068 103.432L49.1784 103.803C50.0235 105.11 50.9874 109.041 51.8412 112.504L53.7998 119.421C53.8438 119.504 54.3543 120.065 54.3543 120.065C55.4723 120.872 58.8833 122.249 61.1587 121.961L61.7265 121.887L62.083 121.048C62.2767 120.014 62.3471 118.994 62.3471 117.872C62.3471 116.611 62.2591 115.221 62.1534 113.515L61.9994 111.021C61.282 99.445 60.5558 82.7421 60.5558 71.63V70.7492C62.4263 71.9777 70.5907 77.397 70.5907 77.397C84.4899 86.8911 105.48 101.239 118.164 105.031C118.824 105.24 119.515 105.078 120.004 104.586C120.022 104.558 121.954 103.27 121.954 103.27L122.319 103.112C123.045 102.75 123.534 101.457 123.617 100.057C134.308 99.4913 149.22 95.1522 157.199 84.5825C160.284 80.4891 161.675 75.4685 161.675 71.1803C161.675 67.6525 160.751 64.6206 159.065 62.9517" fill="#776841"/>
</svg>
